<?xml version="1.0" encoding="UTF-8"?>
<svg width="192px" height="192px" viewBox="0 0 192 192" version="1.1" xmlns="http://www.w3.org/2000/svg">
    <title>Prayer Pipeline Icon</title>
    <g stroke="none" stroke-width="1" fill="none" fill-rule="evenodd">
        <circle fill="#4F46E5" cx="96" cy="96" r="96"></circle>
        <path d="M129.6,60 C135.124,60 139.6,64.476 139.6,70 L139.6,70 L139.6,98 C139.6,103.524 135.124,108 129.6,108 L129.6,108 L119.6,108 L119.6,132 L89.6,108 L62.4,108 C56.876,108 52.4,103.524 52.4,98 L52.4,98 L52.4,70 C52.4,64.476 56.876,60 62.4,60 L62.4,60 Z" fill="#FFFFFF"></path>
        <path d="M96,48 C111.464,48 124,60.536 124,76 C124,91.464 111.464,104 96,104 C80.536,104 68,91.464 68,76 C68,60.536 80.536,48 96,48 Z M96,58 C86.059,58 78,66.059 78,76 C78,85.941 86.059,94 96,94 C105.941,94 114,85.941 114,76 C114,66.059 105.941,58 96,58 Z" fill="#FFFFFF"></path>
        <path d="M96,72 C98.209,72 100,73.791 100,76 C100,78.209 98.209,80 96,80 C93.791,80 92,78.209 92,76 C92,73.791 93.791,72 96,72 Z" fill="#FFFFFF"></path>
        <path d="M96,124 C102.075,124 107.192,125.961 111.002,129.275 C114.812,132.588 116.998,137.027 116.998,142 C116.998,146.973 114.812,151.412 111.002,154.725 C107.192,158.039 102.075,160 96,160 C89.925,160 84.808,158.039 80.998,154.725 C77.188,151.412 75.002,146.973 75.002,142 C75.002,137.027 77.188,132.588 80.998,129.275 C84.808,125.961 89.925,124 96,124 Z M96,134 C92.817,134 89.765,135.264 87.515,137.515 C85.264,139.765 84,142.817 84,146 C84,149.183 85.264,152.235 87.515,154.485 C89.765,156.736 92.817,158 96,158 C99.183,158 102.235,156.736 104.485,154.485 C106.736,152.235 108,149.183 108,146 C108,142.817 106.736,139.765 104.485,137.515 C102.235,135.264 99.183,134 96,134 Z" fill="#FFFFFF"></path>
    </g>
</svg>